<svg id="svg" version="1.1" xmlns="http://www.w3.org/2000/svg" viewBox="0 0 416 424" style="display: block;"><path d="M0 0 C137.28 0 274.56 0 416 0 C416 139.92 416 279.84 416 424 C278.72 424 141.44 424 0 424 C0 284.08 0 144.16 0 0 Z " transform="translate(0,0)" style="fill: #010100;"/><path d="M0 0 C0.33 0 0.66 0 1 0 C0.24830508 10.37106107 -0.96645005 20.67657773 -2.1875 31 C-2.51780959 33.81225089 -2.84735671 36.6245905 -3.17686462 39.43693542 C-3.41025735 41.42867053 -3.64387378 43.42037943 -3.87770081 45.4120636 C-5.37440056 58.16840864 -6.8423358 70.92807504 -8.3125 83.6875 C-8.58160043 86.02148713 -8.85072422 88.35547157 -9.11987305 90.68945312 C-9.74680152 96.1262768 -10.37350365 101.56312652 -11 107 C-10.29617187 106.86424561 -9.59234375 106.72849121 -8.8671875 106.58862305 C4.41604982 104.02756807 17.69971111 101.47120171 31 99 C31.33 96.69 31.66 94.38 32 92 C32.66 92 33.32 92 34 92 C34.18175781 91.1646875 34.18175781 91.1646875 34.3671875 90.3125 C34.53476563 89.549375 34.70234375 88.78625 34.875 88 C35.03742188 87.2575 35.19984375 86.515 35.3671875 85.75 C37.0997829 78.22069653 39.26221654 71.00119604 41.75 63.6875 C44.24847159 56.26834425 46.71822729 48.84440984 49.0625 41.375 C49.29718994 40.6322583 49.53187988 39.8895166 49.77368164 39.12426758 C51.15253779 34.74781658 52.49595579 30.36200869 53.8203125 25.96875 C54.44267087 23.93748852 55.06506609 21.90623833 55.6875 19.875 C55.97310791 18.90739746 56.25871582 17.93979492 56.55297852 16.94287109 C56.96567993 15.60603271 56.96567993 15.60603271 57.38671875 14.2421875 C57.62608154 13.4466748 57.86544434 12.65116211 58.11206055 11.83154297 C58.40508057 11.22713379 58.69810059 10.62272461 59 10 C62.69667846 8.76777385 64.02170201 9.39143998 67.69921875 10.546875 C68.82650391 10.8975 69.95378906 11.248125 71.11523438 11.609375 C72.29408203 11.98578125 73.47292969 12.3621875 74.6875 12.75 C76.42676758 13.29140625 76.42676758 13.29140625 78.20117188 13.84375 C84.20887162 15.7290543 90.12075758 17.74909005 96 20 C98.32295575 20.71628434 100.65312983 21.36438933 103 22 C102.85828369 22.84361084 102.71656738 23.68722168 102.57055664 24.55639648 C101.98875522 28.06786806 101.42801169 31.58215483 100.87109375 35.09765625 C98.03713099 52.88709484 95.04606878 70.64240704 91.875 88.375 C91.61446335 89.83234055 91.61446335 89.83234055 91.34866333 91.31912231 C90.51775111 95.96398621 89.68522175 100.6085581 88.8515625 105.25292969 C86.66270366 117.44945756 84.52931166 129.65103991 82.5703125 141.88671875 C82.4427356 142.68311264 82.31515869 143.47950653 82.18371582 144.30003357 C82.05444702 145.10699173 81.92517822 145.91394989 81.79199219 146.74536133 C81.52802034 148.39274498 81.26402296 150.04012454 81 151.6875 C80.87129517 152.49126068 80.74259033 153.29502136 80.60998535 154.12313843 C78.68071737 166.14205129 76.57072117 178.09907319 74 190 C73.67 190 73.34 190 73 190 C73 146.77 73 103.54 73 59 C70.44240484 72.42737461 67.96002359 85.82939285 65.75 99.3125 C65.47940213 100.95121077 65.2085692 102.58988275 64.9375 104.22851562 C64.28898226 108.15190615 63.64355582 112.07579265 63 116 C55.72258622 118.02169447 55.72258622 118.02169447 52.4465332 118.93066406 C48.49793968 120.02637088 44.55024327 121.12499131 40.60546875 122.234375 C31.17360906 124.8811416 21.71431753 127.40572044 12.22973633 129.85717773 C11.3198999 130.09251221 10.41006348 130.32784668 9.47265625 130.5703125 C8.57691895 130.80137695 7.68118164 131.03244141 6.75830078 131.27050781 C2.95972895 132.27512214 -0.81705673 133.35513086 -4.59204102 134.44482422 C-7 135 -7 135 -11 135 C-12.90234375 132.9375 -12.90234375 132.9375 -14.9375 130 C-15.72312538 128.89468436 -16.51239924 127.79195576 -17.3046875 126.69140625 C-17.94615723 125.79832764 -17.94615723 125.79832764 -18.60058594 124.88720703 C-21.13264128 121.47255459 -23.85926157 118.21696633 -26.5625 114.9375 C-28.71393146 112.296182 -30.85734326 109.64843705 -33 107 C-33.45455566 106.44296387 -33.90911133 105.88592773 -34.37744141 105.31201172 C-35.5620696 103.84800301 -36.71963133 102.36220836 -37.875 100.875 C-38.51179687 100.06804687 -39.14859375 99.26109375 -39.8046875 98.4296875 C-41.42572079 95.13464597 -40.97605979 93.50853925 -40 90 C-39.14810524 87.72468615 -38.22645444 85.47470549 -37.25 83.25 C-36.98340576 82.64019287 -36.71681152 82.03038574 -36.44213867 81.40209961 C-34.4927082 76.98791197 -32.40364021 72.65853909 -30.17578125 68.37890625 C-28.95813795 65.91530237 -27.86766233 63.41093983 -26.79663086 60.88061523 C-23.10478686 52.16523849 -19.25732757 43.51351374 -15.3125 34.91015625 C-13.98481808 31.9663377 -12.69655197 29.00759201 -11.4128418 26.04443359 C-8.77355118 19.95267697 -6.03407538 13.97096257 -3 8.0625 C-1.73343752 5.45021489 -0.80654778 2.78625595 0 0 Z " transform="translate(176,50)" style="fill: #EECB00;"/><path d="M0 0 C2.37336371 0.65182082 4.74840821 1.29754911 7.125 1.9375 C30.66953223 8.73520234 52.22843728 21.70672356 71.703125 36.34375 C73.99156545 38.05533914 73.99156545 38.05533914 76.578125 39.47265625 C79.09961934 41.06282446 80.62686504 42.63584124 82.5 44.9375 C84.43613274 47.23665763 86.14363235 49.11490588 88.5 51 C91.43220372 53.34576298 93.7053064 55.97346118 96.1328125 58.828125 C97.32781902 60.21813259 98.54988881 61.58559587 99.8046875 62.921875 C106.71057958 70.3149047 112.3513066 78.6338907 118 87 C118.40847168 87.60457031 118.81694336 88.20914063 119.23779297 88.83203125 C123.69624253 95.51682422 127.07836992 102.1245819 129.7890625 109.68359375 C131.06793142 113.18604443 132.50899301 116.58279362 134 120 C134.75410156 121.76150391 134.75410156 121.76150391 135.5234375 123.55859375 C136.45228514 125.72344764 137.39327812 127.8831708 138.3515625 130.03515625 C142.19683065 139.17651458 143.92445515 148.58085794 145.54150391 158.31665039 C145.85053694 160.12526707 146.18679794 161.92941541 146.54833984 163.72827148 C148.22402482 172.46938904 148.31326376 181.07783854 148.25 189.9375 C148.24689819 190.7083493 148.24379639 191.47919861 148.24060059 192.27340698 C148.11252312 219.45151549 143.60181386 243.24532798 135 269 C134.72414063 268.37609375 134.44828125 267.7521875 134.1640625 267.109375 C132.63796949 264.34397156 130.75109306 263.44794372 128 262 C128.54445819 258.09904679 129.42835154 254.4932854 130.66333008 250.75537109 C143.50749917 211.07804694 142.36020122 162.1393699 124.92822266 124.04052734 C123.76193558 121.476659 122.72758781 118.86723913 121.6875 116.25 C115.28940356 100.94852838 106.02049239 84.02049239 94.1875 72.1875 C92.36634866 70.36634866 90.72704144 68.52223106 89.0625 66.5625 C85.59649686 62.56675839 81.91982119 58.80712724 78.1875 55.0625 C77.61201416 54.48250244 77.03652832 53.90250488 76.44360352 53.30493164 C73.50230483 50.28320735 73.50230483 50.28320735 70 48 C70 47.34 70 46.68 70 46 C68.68 45.67 67.36 45.34 66 45 C66 44.34 66 43.68 66 43 C65.278125 42.73960938 64.55625 42.47921875 63.8125 42.2109375 C60.89904693 40.9565341 58.57620696 39.4685981 56 37.625 C55.12601562 37.00238281 54.25203125 36.37976562 53.3515625 35.73828125 C51.65250244 34.48233154 49.99815081 33.16512567 48.375 31.8125 C45.68852704 29.76229695 42.93861615 28.3858724 39.8984375 26.93359375 C38 26 38 26 35.625 24.5 C32.46133594 22.69219196 29.20843808 21.42487308 25.81640625 20.10546875 C21.86645289 18.55507097 17.96336996 16.89726847 14.0546875 15.24609375 C13.04664063 14.83488281 12.03859375 14.42367187 11 14 C9.83855469 13.51789062 8.67710937 13.03578125 7.48046875 12.5390625 C-2.87221113 8.69787988 -14.20063118 7.14241824 -25 5 C-25.75764648 4.8457959 -26.51529297 4.6915918 -27.29589844 4.53271484 C-46.10093905 0.83019367 -67.02797986 1.69921179 -85.734375 5.54248047 C-88.13984075 6.02823939 -90.55139148 6.45652337 -92.96875 6.87890625 C-107.83113384 9.55108387 -121.97259715 13.51519218 -135.3515625 20.64453125 C-137.82801759 21.91197951 -140.25917188 22.87706632 -142.875 23.8125 C-149.83494343 26.51420328 -155.86551054 30.81866611 -162 35 C-162.58861816 35.39493652 -163.17723633 35.78987305 -163.78369141 36.19677734 C-171.36455247 41.3016567 -178.26278118 46.78156859 -184.82641602 53.15356445 C-187.22021932 55.46328078 -188.79751452 56.93250484 -192 58 C-192.67362611 59.32983085 -193.33900502 60.66384587 -194 62 C-195.4595353 63.49883048 -196.96591132 64.95256967 -198.5 66.375 C-204.56926609 72.33962357 -209.31087426 78.92083887 -214 86 C-214.42313477 86.63744141 -214.84626953 87.27488281 -215.28222656 87.93164062 C-224.16343851 101.43862407 -231.33290674 115.34703137 -236.7734375 130.57421875 C-237.4876594 132.56903598 -238.23041462 134.55489364 -239.04296875 136.51171875 C-245.93546639 154.43221262 -247.5575485 174.43326463 -247.375 193.4375 C-247.37101196 194.2868512 -247.36702393 195.13620239 -247.36291504 196.0112915 C-247.29397821 208.5539638 -246.7544801 220.72232252 -244 233 C-243.83419434 233.78004395 -243.66838867 234.56008789 -243.49755859 235.36376953 C-242.06222123 242.08505188 -240.58203585 248.61226783 -238 255 C-237.6875 258.125 -237.6875 258.125 -238 261 C-239.375 262.5625 -239.375 262.5625 -241 264 C-242.19027984 266.59915538 -242.19027984 266.59915538 -243 269 C-244.9867494 266.0198759 -245.90852573 263.57703925 -247 260.1875 C-247.33 259.17042969 -247.66 258.15335937 -248 257.10546875 C-248.33 256.08066406 -248.66 255.05585938 -249 254 C-249.34160156 252.98679687 -249.68320313 251.97359375 -250.03515625 250.9296875 C-251.65725849 246.00427584 -252.90674068 241.06972212 -254 236 C-254.14115234 235.35901367 -254.28230469 234.71802734 -254.42773438 234.05761719 C-260.47817173 205.10586378 -261.08670302 165.70921282 -249.78344727 137.94702148 C-248.8834863 135.7104404 -248.11579286 133.44659595 -247.3515625 131.16015625 C-247.06796875 130.32419922 -246.784375 129.48824219 -246.4921875 128.62695312 C-245.9160462 126.92318391 -245.34568675 125.21744812 -244.78125 123.50976562 C-243.02718874 118.37795125 -240.89662846 113.83456271 -238.16772461 109.15209961 C-237.05254306 107.0968361 -236.23522916 105.11020825 -235.46484375 102.90625 C-233.99530459 98.7550326 -231.92932581 95.20054697 -229.5625 91.5 C-229.13074463 90.81856934 -228.69898926 90.13713867 -228.25415039 89.43505859 C-221.31559145 78.65601902 -213.62422962 68.41886388 -204.8828125 59.03515625 C-203.31538562 57.34090437 -201.86510793 55.62300939 -200.4375 53.8125 C-197.86128598 50.83994536 -195.1247116 48.36600798 -192.12890625 45.828125 C-190.77345738 44.66417991 -189.44402282 43.4687068 -188.15234375 42.234375 C-172.32662338 27.25814658 -152.13492237 16.03134544 -132 8 C-131.25282715 7.6920752 -130.5056543 7.38415039 -129.73583984 7.06689453 C-89.81286247 -9.25204397 -41.46124476 -13.69933494 0 0 Z " transform="translate(261,20)" style="fill: #E9C702;"/><path d="M0 0 C6.6 0 13.2 0 20 0 C20.04898438 2.17851562 20.09796875 4.35703125 20.1484375 6.6015625 C20.50768551 21.64839563 20.9831833 36.66917393 22 51.6875 C22.0829834 52.91355957 22.1659668 54.13961914 22.25146484 55.40283203 C22.67199569 61.29769965 23.19147637 67.14542263 24 73 C26.89989078 72.91212452 28.58362211 72.4028214 30.6796875 70.375 C31.25976562 69.735625 31.83984375 69.09625 32.4375 68.4375 C34.72601935 66.06020189 35.73466772 65.08468051 38.9375 64.0625 C43.16445851 65.35646689 45.21987375 67.95310699 48.0703125 71.25 C50.05966376 73.44785111 50.05966376 73.44785111 54 73 C56.89676655 48.67588125 57.65753123 24.4806124 58 0 C64.27 0 70.54 0 77 0 C77.52510446 19.13714041 76.17349574 38.01863494 74.56625366 57.0728302 C74.17702685 61.71047908 73.84032985 66.34594143 73.56640625 70.9921875 C73.44014134 72.84896086 73.31384354 74.70573199 73.1875 76.5625 C73.15414551 77.35100342 73.12079102 78.13950684 73.08642578 78.9519043 C72.69569431 84.00140078 71.15741213 87.11590728 67.73168945 90.69848633 C64.87273565 92.84723618 62.49247868 92.75014414 59 92.5625 C57.824375 92.52253906 56.64875 92.48257813 55.4375 92.44140625 C48.68094953 91.57380375 44.92235928 89.45356315 40 85 C37.05215923 86.01068826 35.16496206 86.83751858 32.921875 89.046875 C28.77530705 91.81864502 25.31449482 91.58914537 20.4375 91.5 C19.16229492 91.52320313 19.16229492 91.52320313 17.86132812 91.546875 C14.07035531 91.5230885 11.72891964 91.48979703 8.53515625 89.34375 C4.7222705 83.52255038 4.4786016 77.15913034 3.96484375 70.4140625 C3.88126114 69.39831146 3.79767853 68.38256042 3.71156311 67.33602905 C3.44652816 64.09954303 3.19162308 60.86235941 2.9375 57.625 C2.6778151 54.3949732 2.41601763 51.16512895 2.15272522 47.93539429 C1.98989761 45.92992255 1.82947789 43.92425337 1.67185974 41.91836548 C1.34611415 37.8394428 0.9943506 33.78207581 0.44970703 29.72607422 C0.03394149 26.28122424 -0.11498726 22.99745285 -0.09765625 19.53125 C-0.09443359 18.38398438 -0.09121094 17.23671875 -0.08789062 16.0546875 C-0.07951172 14.88164062 -0.07113281 13.70859375 -0.0625 12.5 C-0.05798828 11.29601562 -0.05347656 10.09203125 -0.04882812 8.8515625 C-0.03711962 5.90102001 -0.0191868 2.95050334 0 0 Z " transform="translate(28,290)" style="fill: #EAC701;"/><path d="M0 0 C0.74636719 -0.00708984 1.49273437 -0.01417969 2.26171875 -0.02148438 C7.66713463 0.04070183 10.92527319 1.14821962 15.04150391 4.80810547 C20.33809231 10.72531856 20.8035195 21.16162855 22.23486328 28.7019043 C22.62260485 30.7374262 23.02351536 32.77003915 23.42578125 34.80273438 C26.12395696 48.65572405 26.64099832 62.12297086 26.5625 76.1875 C26.55747097 77.77083191 26.55291057 79.35416537 26.54882812 80.9375 C26.53880353 84.7709047 26.51920975 88.60408702 26.5 92.4375 C20.23 92.4375 13.96 92.4375 7.5 92.4375 C7.44392578 88.68826172 7.44392578 88.68826172 7.38671875 84.86328125 C7.09780838 68.29601935 6.79647762 51.99562019 3.87304688 35.64404297 C3.22667602 31.82081012 2.77407578 27.97417415 2.3125 24.125 C2.15394531 22.82949219 1.99539062 21.53398437 1.83203125 20.19921875 C1.72246094 19.28785156 1.61289063 18.37648438 1.5 17.4375 C0.84 17.4375 0.18 17.4375 -0.5 17.4375 C-0.58040527 18.0358667 -0.66081055 18.6342334 -0.74365234 19.25073242 C-1.11951079 22.04232584 -1.49725219 24.83366164 -1.875 27.625 C-2.06449219 29.03555664 -2.06449219 29.03555664 -2.2578125 30.47460938 C-2.38671875 31.42529297 -2.515625 32.37597656 -2.6484375 33.35546875 C-2.7829834 34.35473389 -2.9175293 35.35399902 -3.05615234 36.38354492 C-3.34570823 38.3758742 -3.6675513 40.36385489 -4.02587891 42.3449707 C-5.84481274 52.61557478 -5.94721181 62.85031695 -6.125 73.25 C-6.16327505 75.11785484 -6.20233192 76.98569384 -6.2421875 78.85351562 C-6.33856857 83.38141782 -6.41894697 87.90919514 -6.5 92.4375 C-12.77 92.4375 -19.04 92.4375 -25.5 92.4375 C-25.86845618 70.56212042 -25.10362272 49.99978134 -20.1796875 28.578125 C-19.49960815 25.43568937 -19.01819614 22.30687828 -18.5625 19.125 C-17.51506374 12.69442818 -15.94448706 7.01804385 -11.39453125 2.21484375 C-7.48928658 -0.1831135 -4.4896126 -0.12018825 0 0 Z " transform="translate(140.5,289.5625)" style="fill: #EBC801;"/><path d="M0 0 C14.85 0 29.7 0 45 0 C45 4.95 45 9.9 45 15 C36.75 15 28.5 15 20 15 C20 19.95 20 24.9 20 30 C26.93 30 33.86 30 41 30 C41.99293628 32.97880885 42.13406411 35.01601198 42.125 38.125 C42.12886719 39.45917969 42.12886719 39.45917969 42.1328125 40.8203125 C42 43 42 43 41 44 C39.43827255 44.08685603 37.87270656 44.10702219 36.30859375 44.09765625 C35.45837646 44.09515869 34.60815918 44.09266113 33.73217773 44.09008789 C32.64493408 44.08098389 31.55769043 44.07187988 30.4375 44.0625 C26.993125 44.041875 23.54875 44.02125 20 44 C20 54.89 20 65.78 20 77 C28.91 77 37.82 77 47 77 C47 81.95 47 86.9 47 92 C44.15036367 92.94987878 42.55762509 93.09747457 39.62036133 93.02172852 C38.73967484 93.00163223 37.85898834 92.98153595 36.95161438 92.96083069 C36.00465195 92.93379562 35.05768951 92.90676056 34.08203125 92.87890625 C33.10965012 92.85529526 32.13726898 92.83168427 31.13542175 92.80735779 C28.02763183 92.73074376 24.9200925 92.64670945 21.8125 92.5625 C19.7063925 92.50927707 17.60027274 92.45653668 15.49414062 92.40429688 C10.32926819 92.27513159 5.16460834 92.1393108 0 92 C-1.63812584 88.72374832 -1.07752825 85.10754641 -1.02172852 81.51123047 C-1.01212097 80.63311707 -1.00251343 79.75500366 -0.99261475 78.85028076 C-0.95955522 75.93916987 -0.91924941 73.02820582 -0.87890625 70.1171875 C-0.85461193 68.10222903 -0.83076803 66.08726508 -0.80735779 64.07229614 C-0.74444842 58.76216404 -0.67540121 53.45212858 -0.60510254 48.14208984 C-0.52207 41.77451727 -0.44661319 35.40685102 -0.36989594 29.03919983 C-0.25242079 19.35938204 -0.12528529 9.67973406 0 0 Z " transform="translate(281,290)" style="fill: #E6C403;"/><path d="M0 0 C6.6 0 13.2 0 20 0 C20 25.41 20 50.82 20 77 C28.25 77 36.5 77 45 77 C45 81.95 45 86.9 45 92 C30.4478625 95.63803438 14.99554036 92.36574489 0 92 C0 61.64 0 31.28 0 0 Z " transform="translate(179,290)" style="fill: #E4C303;"/><path d="M0 0 C16.83 0 33.66 0 51 0 C51 4.29 51 8.58 51 13 C45.72 13 40.44 13 35 13 C35 38.74 35 64.48 35 91 C28.73 91 22.46 91 16 91 C16 65.26 16 39.52 16 13 C10.72 13 5.44 13 0 13 C0 8.71 0 4.42 0 0 Z " transform="translate(333,291)" style="fill: #EFCC00;"/><path d="M0 0 C6.27 0 12.54 0 19 0 C19 25.41 19 50.82 19 77 C26.92 77 34.84 77 43 77 C43 81.62 43 86.24 43 91 C28.81 91 14.62 91 0 91 C0 60.97 0 30.94 0 0 Z " transform="translate(231,290)" style="fill: #EECA01;"/><path d="M0 0 C20.91972588 -0.96424775 20.91972588 -0.96424775 30.828125 3.56640625 C36.98424644 6.34879119 43.53044927 8.09095224 50 10 C50.94875 10.28875 51.8975 10.5775 52.875 10.875 C92.26566227 21.86774296 133.24875397 15.88762215 171.12280273 2.53540039 C173 2 173 2 176 2 C176 1.34 176 0.68 176 0 C183.59 0 191.18 0 199 0 C193.51943505 4.11042371 188.45587259 6.72046882 182.0625 9 C176.54467021 10.96826927 176.54467021 10.96826927 171.25390625 13.46484375 C166.31344597 15.79569716 161.13137197 17.11450654 155.875 18.5625 C154.27785156 19.01786133 154.27785156 19.01786133 152.6484375 19.48242188 C145.47987005 21.47900711 138.35484866 22.89568269 131 24 C129.81792969 24.20882813 128.63585937 24.41765625 127.41796875 24.6328125 C87.00411688 30.79018292 44.3616648 23.3168486 8 5 C6.66582031 4.34257812 6.66582031 4.34257812 5.3046875 3.671875 C3.53015222 2.79388194 1.76358417 1.89978784 0 1 C0 0.67 0 0.34 0 0 Z " transform="translate(107,392)" style="fill: #E9C602;"/></svg>